<svg xmlns="http://www.w3.org/2000/svg" xmlns:xlink="http://www.w3.org/1999/xlink" viewBox="0,0,256,256" width="240px" height="240px" fill-rule="nonzero"><g transform="translate(16,16) scale(0.875,0.875)"><g fill-opacity="0.72941" fill="#ffffff" fill-rule="nonzero" stroke-opacity="0.72941" stroke="#ffffff" stroke-width="21.33333" stroke-linecap="butt" stroke-linejoin="round" stroke-miterlimit="10" stroke-dasharray="" stroke-dashoffset="0" font-family="none" font-weight="none" font-size="none" text-anchor="none" style="mix-blend-mode: normal"><path d="M122.66667,148.064c0,1.08267 -0.60267,2.08 -1.57333,2.624l-26.17067,14.49067c-0.48879,0.26977 -1.03644,0.40444 -1.584,0.404c-0.54756,0.00044 -1.09521,-0.13423 -1.584,-0.404l-0.00267,-0.00443l-26.168,-14.48624c-0.98133,-0.544 -1.584,-1.54133 -1.584,-2.624v-28.976c0,-1.08267 0.60267,-2.08533 1.584,-2.624l26.17067,-14.48h-0.00533c0.49067,-0.272 1.03467,-0.40533 1.584,-0.40533c0.544,0 1.09333,0.13333 1.584,0.40533l26.16533,14.48c0.98133,0.544 1.584,1.54133 1.584,2.624zM226.66667,128c0.09067,0 0.18133,0.02133 0.26133,0.06933l4.36267,2.41067c0.16533,0.09067 0.26667,0.256 0.26667,0.43733v4.832c0,0.18133 -0.10133,0.34667 -0.26133,0.43733l-4.36267,2.416c-0.16533,0.09067 -0.36267,0.09067 -0.528,0l-4.36267,-2.416c-0.16,-0.09067 -0.26133,-0.256 -0.26133,-0.43733v-4.832c0,-0.18133 0.096,-0.34667 0.26133,-0.43733l4.36267,-2.41067zM192,73.536v74.27733c0,1.08267 -0.60267,2.08533 -1.57333,2.624l-26.17067,14.49067c-0.976,0.53867 -2.18667,0.53867 -3.16267,0l-26.176,-14.49067c-0.98133,-0.544 -1.584,-1.54133 -1.584,-2.624v-28.976c0,-1.07733 0.60267,-2.08 1.584,-2.61867l26.17067,-14.48h-0.00533c0.49067,-0.272 1.04,-0.40533 1.584,-0.40533c0.544,0 1.09333,0.13333 1.584,0.40533l11.74933,6.50133l0.00533,-42.944c0,-0.45867 0.24533,-0.88 0.64,-1.11467c0.39467,-0.23467 0.88533,-0.24 1.28533,-0.016l12.74133,7.10933c0.816,0.45867 1.328,1.32267 1.328,2.26133zM256,118.912v10.02667c0,0.91733 -0.49067,1.76533 -1.28,2.224l-12.78933,7.42933c-0.4,0.22933 -0.89067,0.22933 -1.29067,0.00533c-0.4,-0.22933 -0.64533,-0.656 -0.64533,-1.11467v-10.73067c0,-0.49067 -0.26667,-0.944 -0.69333,-1.17867l-11.92,-6.59733c-0.224,-0.11733 -0.46933,-0.18133 -0.72,-0.18133c-0.25067,0 -0.496,0.05867 -0.72,0.18133h0.00533l-11.92,6.592c-0.42667,0.23467 -0.69333,0.688 -0.69333,1.17867v13.152c0,0.50133 0.27733,0.96533 0.72,1.216l26.26133,14.33067c1.10933,0.608 1.11467,2.192 0.01067,2.80533l-12.06933,6.68267c-0.98133,0.544 -2.18133,0.544 -3.16267,0l-26.176,-14.49067c-0.976,-0.53867 -1.584,-1.568 -1.584,-2.68267v-28.85867c0,-1.12 0.608,-2.144 1.584,-2.68267l26.17067,-14.48h-0.00533c0.49067,-0.272 1.04,-0.40533 1.584,-0.40533c0.544,0 1.09333,0.13333 1.584,0.40533l26.16533,14.48c0.976,0.53867 1.584,1.568 1.584,2.69333zM58.66667,118.90667v39.808c0,0.45867 -0.24533,0.88533 -0.64,1.12c-0.4,0.224 -0.89067,0.224 -1.29067,-0.00533l-12.78933,-7.42933c-0.79467,-0.45867 -1.28,-1.30667 -1.28,-2.224v-23.42933c0,-0.49067 -0.26667,-0.944 -0.69333,-1.17867l-11.92,-6.59733c-0.224,-0.11733 -0.46933,-0.18133 -0.72,-0.18133c-0.25067,0 -0.496,0.05867 -0.72,0.18133l-11.92,6.592c-0.42667,0.23467 -0.69333,0.688 -0.69333,1.17867v23.42933c0,0.91733 -0.48533,1.76533 -1.27467,2.224l-12.78933,7.42933c-0.4,0.22933 -0.89067,0.22933 -1.29067,0.00533c-0.4,-0.22933 -0.64533,-0.656 -0.64533,-1.11467v-39.81333c0,-1.12 0.608,-2.144 1.584,-2.68267l26.17067,-14.48h-0.00533c0.49067,-0.272 1.04,-0.40533 1.584,-0.40533c0.544,0 1.09333,0.13333 1.584,0.40533l26.16533,14.48c0.976,0.53867 1.584,1.568 1.584,2.688z" id="strokeMainSVG"></path></g><g fill="none" fill-rule="nonzero" stroke="none" stroke-width="1" stroke-linecap="butt" stroke-linejoin="miter" stroke-miterlimit="10" stroke-dasharray="" stroke-dashoffset="0" font-family="none" font-weight="none" font-size="none" text-anchor="none" style="mix-blend-mode: normal"><g transform="scale(5.33333,5.33333)"><path d="M17.204,19.122l-4.907,2.715c-0.184,0.101 -0.297,0.289 -0.297,0.492v5.433c0,0.203 0.113,0.39 0.297,0.492l4.908,2.717c0.183,0.101 0.41,0.101 0.593,0l4.907,-2.717c0.182,-0.102 0.295,-0.289 0.295,-0.492v-5.433c0,-0.203 -0.113,-0.39 -0.297,-0.492l-4.906,-2.715c-0.092,-0.051 -0.195,-0.076 -0.297,-0.076c-0.103,0 -0.205,0.025 -0.297,0.076M42.451,24.013l-0.818,0.452c-0.031,0.017 -0.049,0.048 -0.049,0.082v0.906c0,0.034 0.019,0.065 0.049,0.082l0.818,0.453c0.031,0.017 0.068,0.017 0.099,0l0.818,-0.453c0.03,-0.017 0.049,-0.048 0.049,-0.082v-0.906c0,-0.034 -0.019,-0.065 -0.05,-0.082l-0.818,-0.452c-0.015,-0.009 -0.032,-0.013 -0.049,-0.013c-0.017,0 -0.034,0.004 -0.049,0.013" fill="#388e3c"></path><path d="M35.751,13.364l-2.389,-1.333c-0.075,-0.042 -0.167,-0.041 -0.241,0.003c-0.074,0.044 -0.12,0.123 -0.12,0.209l-0.001,8.052l-2.203,-1.219c-0.092,-0.051 -0.195,-0.076 -0.297,-0.076c-0.102,0 -0.205,0.025 -0.297,0.076h0.001l-4.907,2.715c-0.184,0.101 -0.297,0.289 -0.297,0.491v5.433c0,0.203 0.113,0.39 0.297,0.492l4.908,2.717c0.183,0.101 0.41,0.101 0.593,0l4.907,-2.717c0.182,-0.101 0.295,-0.289 0.295,-0.492v-13.927c0,-0.176 -0.096,-0.338 -0.249,-0.424zM32.866,26.458l-2.23,1.235c-0.083,0.046 -0.186,0.046 -0.269,0l-2.231,-1.235c-0.085,-0.046 -0.136,-0.132 -0.136,-0.224v-2.47c0,-0.092 0.051,-0.177 0.135,-0.224l2.231,-1.234h-0.001c0.042,-0.023 0.088,-0.034 0.135,-0.034c0.047,0 0.093,0.012 0.135,0.034l2.23,1.234c0.084,0.047 0.135,0.133 0.135,0.225v2.47c0,0.091 -0.051,0.177 -0.134,0.223z" fill="#37474f"></path><path d="M17.204,19.122l-5.204,8.64c0,0.203 0.113,0.39 0.297,0.492l4.908,2.717c0.183,0.101 0.41,0.101 0.593,0l5.202,-8.642c0,-0.203 -0.113,-0.39 -0.297,-0.492l-4.906,-2.715c-0.092,-0.051 -0.195,-0.076 -0.297,-0.076c-0.103,0 -0.205,0.025 -0.297,0.076" fill="#2e7d32"></path><path d="M17.204,19.122l-4.907,2.715c-0.184,0.101 -0.297,0.289 -0.297,0.492l5.204,8.642c0.183,0.101 0.41,0.101 0.593,0l4.907,-2.717c0.183,-0.102 0.296,-0.289 0.296,-0.492l-5.203,-8.64c-0.092,-0.051 -0.195,-0.076 -0.297,-0.076c-0.103,0 -0.205,0.025 -0.297,0.076" fill="#4caf50"></path><path d="M47.703,21.791l-4.906,-2.715c-0.092,-0.051 -0.195,-0.076 -0.297,-0.076c-0.102,0 -0.205,0.025 -0.297,0.076h0.001l-4.907,2.715c-0.183,0.101 -0.297,0.293 -0.297,0.503v5.411c0,0.209 0.114,0.402 0.297,0.503l4.908,2.717c0.184,0.102 0.409,0.102 0.593,0l2.263,-1.253c0.207,-0.115 0.206,-0.412 -0.002,-0.526l-4.924,-2.687c-0.083,-0.047 -0.135,-0.134 -0.135,-0.228v-2.466c0,-0.092 0.05,-0.177 0.13,-0.221l2.235,-1.236h-0.001c0.042,-0.023 0.088,-0.034 0.135,-0.034c0.047,0 0.093,0.012 0.135,0.034l2.235,1.237c0.08,0.044 0.13,0.129 0.13,0.221v2.012c0,0.086 0.046,0.166 0.121,0.209c0.075,0.042 0.167,0.042 0.242,-0.001l2.398,-1.393c0.148,-0.086 0.24,-0.245 0.24,-0.417v-1.88c0,-0.211 -0.114,-0.404 -0.297,-0.505zM10.703,21.791l-4.906,-2.715c-0.092,-0.051 -0.195,-0.076 -0.297,-0.076c-0.102,0 -0.205,0.025 -0.297,0.076h0.001l-4.907,2.715c-0.183,0.101 -0.297,0.293 -0.297,0.503v7.465c0,0.086 0.046,0.166 0.121,0.209c0.075,0.042 0.167,0.042 0.242,-0.001l2.398,-1.393c0.148,-0.086 0.239,-0.245 0.239,-0.417v-4.393c0,-0.092 0.05,-0.177 0.13,-0.221l2.235,-1.236v0c0.042,-0.023 0.088,-0.034 0.135,-0.034c0.047,0 0.093,0.012 0.135,0.034l2.235,1.237c0.08,0.044 0.13,0.129 0.13,0.221v4.393c0,0.172 0.091,0.331 0.24,0.417l2.398,1.393c0.075,0.043 0.167,0.043 0.242,0.001c0.074,-0.044 0.12,-0.124 0.12,-0.21v-7.464c0,-0.21 -0.114,-0.403 -0.297,-0.504z" fill="#37474f"></path></g></g></g></svg>